<svg width="59" height="72" fill="none" xmlns="http://www.w3.org/2000/svg"><path fill-rule="evenodd" clip-rule="evenodd" d="M58 21l-2-1H17l-2-7H3c-2 0-3 1-3 3 0 1 1 3 3 3h7l14 39h25c2 0 3-1 3-3 0-1-1-2-3-2H28l-1-6h23c1 0 2 0 3-2l6-21-1-3zm-7 10h-5v-5h6l-1 5zm-18-5v5h7v-5h-7zm7 11v5h-7v-5h7zm-13-6v-5h-8l2 5h6zm-4 6h4v5h-2l-2-5zm23 0v5h1l2-5h-3z" fill="#fff"/><path d="M27 72c4 0 6-3 6-6s-2-6-6-6c-3 0-5 3-5 6s2 6 5 6zM45 72c3 0 6-3 6-6s-3-6-6-6-6 3-6 6 3 6 6 6zM29 11l8 5a2 2 0 003-1l-1-2-2-2 9-5 5 12h4L49 2l-1-1h-2L33 8l-3-2h-3l-8 11-1 1h6l5-7z" fill="#fff"/></svg>