<svg width="138" height="23" viewBox="0 0 138 23" fill="none" xmlns="http://www.w3.org/2000/svg">
<path fill-rule="evenodd" clip-rule="evenodd" d="M132.694 3.39699V22.297H129.994V3.39699H125.194V1.29699H137.494V3.39699H132.694ZM122.299 14.512C121.829 15.102 121.239 15.522 120.529 15.772C119.819 16.022 118.974 16.147 117.994 16.147C117.534 16.147 117.014 16.117 116.434 16.057C115.854 15.997 115.374 15.927 114.994 15.847V22.297H112.294V1.59699C113.054 1.37699 113.819 1.22199 114.589 1.13199C115.359 1.04199 116.194 0.996994 117.094 0.996994C118.294 0.996994 119.314 1.12199 120.154 1.37199C120.994 1.62199 121.674 2.03699 122.194 2.61699C122.714 3.19699 123.094 3.96699 123.334 4.92699C123.574 5.88699 123.694 7.07699 123.694 8.49699C123.694 9.95699 123.579 11.177 123.349 12.157C123.119 13.137 122.769 13.922 122.299 14.512ZM120.769 5.79699C120.619 5.07699 120.384 4.50699 120.064 4.08699C119.744 3.66699 119.339 3.37199 118.849 3.20199C118.359 3.03199 117.774 2.94699 117.094 2.94699H114.994V14.047H117.094C117.774 14.047 118.359 13.962 118.849 13.792C119.339 13.622 119.744 13.327 120.064 12.907C120.384 12.487 120.619 11.917 120.769 11.197C120.919 10.477 120.994 9.57699 120.994 8.49699C120.994 7.41699 120.919 6.51699 120.769 5.79699ZM105.544 16.897H99.544L98.194 22.297H95.494L100.594 1.29699H104.494L109.594 22.297H106.894L105.544 16.897ZM102.604 4.29699H102.484L99.994 14.797H105.094L102.604 4.29699ZM89.644 6.69699H89.494L85.144 19.597H82.444L78.094 6.69699H77.944L77.044 22.297H74.344L75.544 1.29699H78.844L83.734 15.697H83.854L88.744 1.29699H92.044L93.244 22.297H90.544L89.644 6.69699ZM69.484 20.347C68.924 21.167 68.249 21.747 67.459 22.087C66.669 22.427 65.764 22.597 64.744 22.597C63.724 22.597 62.819 22.427 62.029 22.087C61.239 21.747 60.564 21.167 60.004 20.347C59.444 19.527 59.019 18.422 58.729 17.032C58.439 15.642 58.294 13.897 58.294 11.797C58.294 9.69699 58.439 7.95199 58.729 6.56199C59.019 5.17199 59.444 4.06699 60.004 3.24699C60.564 2.42699 61.239 1.84699 62.029 1.50699C62.819 1.16699 63.724 0.996994 64.744 0.996994C65.764 0.996994 66.669 1.16699 67.459 1.50699C68.249 1.84699 68.924 2.42699 69.484 3.24699C70.044 4.06699 70.469 5.17199 70.759 6.56199C71.049 7.95199 71.194 9.69699 71.194 11.797C71.194 13.897 71.049 15.642 70.759 17.032C70.469 18.422 70.044 19.527 69.484 20.347ZM68.179 7.35699C67.969 6.19699 67.694 5.27699 67.354 4.59699C67.014 3.91699 66.614 3.44699 66.154 3.18699C65.694 2.92699 65.224 2.79699 64.744 2.79699C64.264 2.79699 63.794 2.92699 63.334 3.18699C62.874 3.44699 62.474 3.91699 62.134 4.59699C61.794 5.27699 61.519 6.19699 61.309 7.35699C61.099 8.51699 60.994 9.99699 60.994 11.797C60.994 13.597 61.099 15.077 61.309 16.237C61.519 17.397 61.794 18.317 62.134 18.997C62.474 19.677 62.874 20.147 63.334 20.407C63.794 20.667 64.264 20.797 64.744 20.797C65.224 20.797 65.694 20.667 66.154 20.407C66.614 20.147 67.014 19.677 67.354 18.997C67.694 18.317 67.969 17.397 68.179 16.237C68.389 15.077 68.494 13.597 68.494 11.797C68.494 9.99699 68.389 8.51699 68.179 7.35699ZM51.994 12.697H45.694V22.297H42.994V1.29699H45.694V10.597H51.994V1.29699H54.694V22.297H51.994V12.697ZM37.745 22.297L33.995 13.297L30.245 22.297H27.545L32.045 11.497L27.995 1.29699H30.695L33.995 9.69699L37.295 1.29699H39.995L35.945 11.497L40.445 22.297H37.745ZM15.695 1.29699H25.895V3.39699H18.395V10.297H24.995V12.397H18.395V20.197H25.895V22.297H15.695V1.29699ZM8.495 22.297H5.795V3.39699H0.994995V1.29699H13.295V3.39699H8.495V22.297Z" fill="white"/>
</svg>
